<?xml version="1.0" encoding="UTF-8"?>
<svg id="Layer_1" data-name="Layer 1" xmlns="http://www.w3.org/2000/svg" viewBox="0 0 915.06 837.45">
  <defs>
    <style>
      .cls-1 {
        fill: none;
        stroke: #9b9a9a;
        stroke-miterlimit: 10;
        stroke-width: 6px;
      }

      .cls-2 {
        fill: #5a50a2;
      }
    </style>
  </defs>
  <g>
    <rect class="cls-2" x="99.23" y="83.02" width="657.44" height="646.7" rx="83.61" ry="83.61" transform="translate(10.66 -10.94) rotate(1.48)"/>
    <rect x="104.67" y="95.87" width="635.49" height="624.57" rx="83.61" ry="83.61" transform="translate(-17.96 19.45) rotate(-2.58)"/>
  </g>
  <circle class="cls-2" cx="623.55" cy="189.9" r="41.99"/>
  <path class="cls-1" d="m280.14,399.17l75.31,34.36s36.39,14.7,6.56,35.41c-29.83,20.71-72.33,50.86-72.33,50.86,0,0-24.9,19.96-28.33-13.65-3.43-33.61-8.05-92.27-8.05-92.27,0,0-.75-27.29,26.84-14.7Z"/>
  <path class="cls-1" d="m520.18,371.97l7.13,69.42s4.82,32.74-22.82,19.69c-27.64-13.05-67.5-31.37-67.5-31.37,0,0-25.01-9.77-2.16-26.42,22.85-16.65,63.32-44.72,63.32-44.72,0,0,19.42-12.04,22.03,13.4Z"/>
</svg>