<?xml version="1.0" encoding="UTF-8"?>
<svg id="Layer_1" data-name="Layer 1" xmlns="http://www.w3.org/2000/svg" xmlns:xlink="http://www.w3.org/1999/xlink" viewBox="0 0 1080 1350">
  <defs>
    <style>
      .cls-1 {
        fill: url(#linear-gradient-2);
      }

      .cls-2 {
        fill: #fff;
      }

      .cls-3 {
        fill: url(#linear-gradient-6);
      }

      .cls-4 {
        fill: none;
        stroke: #9b9a9a;
        stroke-miterlimit: 10;
        stroke-width: 6px;
      }

      .cls-5 {
        fill: url(#linear-gradient-5);
      }

      .cls-6 {
        fill: #5a50a2;
      }

      .cls-7 {
        fill: url(#linear-gradient-3);
      }

      .cls-8 {
        fill: url(#linear-gradient);
      }

      .cls-9 {
        fill: url(#linear-gradient-4);
      }
    </style>
    <linearGradient id="linear-gradient" x1="447.7" y1="930.39" x2="558.92" y2="930.39" gradientUnits="userSpaceOnUse">
      <stop offset="0" stop-color="#a2a2a2"/>
      <stop offset="1" stop-color="#a2a2a2"/>
    </linearGradient>
    <linearGradient id="linear-gradient-2" x1="279.2" y1="903.03" x2="346.09" y2="903.03" xlink:href="#linear-gradient"/>
    <linearGradient id="linear-gradient-3" x1="357.94" y1="930.57" x2="436.2" y2="930.57" xlink:href="#linear-gradient"/>
    <linearGradient id="linear-gradient-4" x1="569.78" y1="902.14" x2="591.97" y2="902.14" xlink:href="#linear-gradient"/>
    <linearGradient id="linear-gradient-5" x1="756.63" y1="931.98" x2="827.16" y2="931.98" xlink:href="#linear-gradient"/>
    <linearGradient id="linear-gradient-6" x1="839.03" y1="915.18" x2="900.09" y2="915.18" xlink:href="#linear-gradient"/>
  </defs>
  <circle class="cls-6" cx="702.28" cy="931.96" r="32.04"/>
  <g>
    <rect class="cls-6" x="327.11" y="324.44" width="501.64" height="493.44" rx="83.61" ry="83.61" transform="translate(14.98 -14.77) rotate(1.48)"/>
    <rect x="331.26" y="334.24" width="484.89" height="476.56" rx="83.61" ry="83.61" transform="translate(-25.21 26.43) rotate(-2.58)"/>
  </g>
  <circle class="cls-6" cx="727.17" cy="405.99" r="32.04"/>
  <path class="cls-4" d="m465.14,565.67l57.46,26.22s27.76,11.22,5.01,27.02-55.19,38.81-55.19,38.81c0,0-19,15.23-21.62-10.42s-6.14-70.41-6.14-70.41c0,0-.57-20.83,20.48-11.22Z"/>
  <path class="cls-4" d="m648.3,544.91l5.44,52.97s3.68,24.98-17.42,15.03c-21.09-9.96-51.51-23.94-51.51-23.94,0,0-19.08-7.46-1.65-20.16,17.44-12.7,48.31-34.12,48.31-34.12,0,0,14.82-9.18,16.81,10.22Z"/>
  <path class="cls-8" d="m514.3,919.22c0,5.97.01,11.95,0,17.92-.02,5.65,3.61,10.39,9.7,11.58,3.85.75,7.07-1.02,9.7-3.75,2.1-2.17,2.87-4.88,2.86-7.86,0-10,.02-20,.04-29.99,0-1.62.01-3.24.07-4.85.21-5.58,4.53-10.35,10.83-10.65,5.9-.29,11.39,4.58,11.35,10.33-.07,11.66.22,23.32-.1,34.97-.26,9.75-4.37,17.96-11.88,24.29-6.22,5.23-13.43,8.07-21.62,7.99-7.61-.08-14.41-2.59-20.39-7.28-1.69-1.32-1.61-1.29-3.27,0-4.92,3.82-10.47,6.36-16.67,7.02-12.08,1.3-22.11-2.98-29.84-12.18-4.82-5.73-7.41-12.51-7.38-20.14.04-11.24.02-22.49.02-33.73,0-3.52,1.21-6.49,4-8.73,5.61-4.49,13.59-2.67,16.84,3.23.94,1.7,1.25,3.49,1.24,5.38,0,7.8,0,15.6,0,23.4,0,3.78-.04,7.55.06,11.33.18,6.97,5.16,10.84,10.6,11.34,5.99.56,11.43-5,11.45-11.4.03-10.99,0-21.99.01-32.98,0-.83,0-1.67.14-2.48.9-4.9,3.39-8.27,8.41-9.92,4.62-1.53,11.51,1.51,13.23,6.58.25.73.38,1.54.38,2.31.03,6.1.02,12.2.02,18.29.06,0,.13,0,.19,0Z"/>
  <path class="cls-1" d="m301.75,893.62c2.17-.34,4.26-.57,6.31-1.01,3.53-.77,7.02-.45,10.53.12,9.04,1.49,16.08,6.15,21.51,13.42,3.36,4.5,5.55,9.43,5.79,15.08.16,3.81.22,7.62.18,11.43-.1,9.04-.36,18.08-.39,27.12-.01,2.61-1.18,4.54-2.79,6.3-5.52,6-14.96,4.42-18.63-3.41-.33-.71-.36-1.62-.36-2.43,0-12.07,0-24.14.03-36.22.02-5.14-2.37-8.7-7.01-10.75-4.73-2.09-10.75.01-13.35,4.49-1.21,2.08-1.68,4.3-1.69,6.66-.05,10.95-.1,21.9-.18,32.85-.03,4.4-1.52,8.07-5.4,10.59-2.98,1.94-8.11,2.03-11.18.25-4.44-2.59-5.91-6.64-5.92-11.44-.02-25.93,0-51.86,0-77.79,0-9.25-.02-18.5.01-27.75,0-2.77.04-5.55,1.18-8.19,2.11-4.87,8.66-8.79,15.19-5.3,3.83,2.05,5.9,5.4,6.01,9.68.18,7.25.12,14.52.15,21.77.02,6.47.01,12.94.01,19.41,0,1.68,0,3.37,0,5.09Z"/>
  <path class="cls-7" d="m436.2,930.9c-.28,21.51-17.93,38.73-39.23,38.63-21.33-.1-38.74-17.17-39.02-38.23-.3-22.08,16.84-39.76,39.17-39.7,22.17.06,38.93,17.27,39.09,39.3Z"/>
  <path class="cls-9" d="m569.78,901.93c0-18.29,0-36.58,0-54.88,0-3.25.88-6.1,3.32-8.4,3.42-3.23,7.41-3.8,11.68-2.35,3.8,1.29,6,4.16,6.9,8.02.2.84.28,1.72.28,2.59.01,36.75.03,73.5-.01,110.25,0,6.19-3.75,10.16-9.11,11.35-6.2,1.36-13.06-3.82-13.04-10.83.06-18.58.02-37.16.02-55.75,0,0-.02,0-.02,0Z"/>
  <path class="cls-2" d="m604.96,939.95c0-5.23-.05-10.45,0-15.68.13-12,8.52-24.64,20.18-29.32,4.47-1.79,8.99-2.58,13.72-2.57,4.66.02,9.33-.04,13.98.19,3.94.19,6.44,2.76,8.1,6.01,1.5,2.94,1.46,6.03-.49,8.86-.72,1.05-1.55,2.07-2.51,2.9-1.83,1.6-3.94,2.46-6.49,2.39-4.2-.12-8.41-.08-12.61,0-5.16.09-8.71,2.76-10.78,7.32-.57,1.26-.65,2.82-.66,4.25-.01,3.81.16,7.63.2,11.45,0,.86.38,1.06,1.12,1.06,2.16,0,4.33.02,6.49.04,4.88.05,9.59,3.02,10.45,9.09.66,4.59-.61,8.43-4.4,11.31-1.46,1.11-3.14,1.48-4.92,1.48-9.86-.01-19.72-.05-29.58-.05-.98,0-1.31-.32-1.3-1.29.03-5.81.02-11.62.02-17.42-.18,0-.36,0-.54,0Z"/>
  <path class="cls-5" d="m772.29,969.75c-5.48-.13-9.74-2.5-12.09-7.38-1.08-2.24-1.47-4.94-1.6-7.46-.55-10.35-.88-20.71-1.31-31.07-.22-5.34-.76-10.69-.64-16.02.09-3.96,1.25-7.88,4.58-10.51,3.55-2.81,7.61-4.4,12.16-2.73,3.38,1.23,6.71,2.67,9.93,4.29,7.56,3.81,15.06,7.75,22.54,11.71,4.88,2.58,9.69,5.3,14.53,7.95,4.76,2.6,7.62,8.5,6.54,14.03-.72,3.66-2.49,6.45-5.56,8.44-5.82,3.77-11.67,7.48-17.51,11.22-5.46,3.49-10.9,7.01-16.37,10.47-3.05,1.93-6.07,3.95-9.27,5.61-1.79.93-3.92,1.2-5.89,1.78l-.04-.32Zm-5.35-51.71c.07,0,.14,0,.21,0,.28,6.55.55,13.09.84,19.64.24,5.3.5,10.6.79,15.9.07,1.24.14,2.5.46,3.69.65,2.39,2.45,3.12,4.55,1.87,4.14-2.46,8.28-4.93,12.35-7.49,8.97-5.64,17.9-11.33,26.83-17.01.98-.62,1.94-1.3,2.79-2.08,1.9-1.76,1.65-3.87-.58-5.24-.81-.5-1.7-.86-2.54-1.31-7.83-4.19-15.64-8.4-23.48-12.57-5.46-2.9-10.96-5.73-16.46-8.57-.51-.26-1.07-.47-1.64-.58-2.49-.46-4.25.65-4.16,3.31.11,3.48.03,6.96.03,10.45Z"/>
  <path class="cls-3" d="m899.89,928.66c.24,3.69.49,7.39-.83,10.95-1.4,3.77-3.81,6.42-7.81,7.74-4.35,1.44-8.21.25-11.96-1.66-4.47-2.28-8.83-4.77-13.24-7.15-4.79-2.59-9.59-5.15-14.37-7.74-2.08-1.13-4.15-2.28-6.2-3.45-3.08-1.76-4.83-4.42-5.93-7.8-1.45-4.42.24-10.07,4.17-12.85,2.37-1.68,4.81-3.26,7.28-4.8,7.37-4.58,14.77-9.12,22.16-13.67,1.77-1.09,3.47-2.32,5.35-3.19,2.24-1.04,4.63-1.76,6.97-2.6.26-.09.59-.08.87-.03,4.23.92,8.33,2.26,10.54,6.31,1.06,1.94,1.41,4.3,1.9,6.5.27,1.2.19,2.47.23,3.72.3,9.9.59,19.81.89,29.72Zm-10.23-6.98c-.06,0-.12,0-.19,0-.18-5.31-.37-10.61-.54-15.92-.11-3.36-.16-6.72-.28-10.08-.09-2.54-1.86-3.59-4.07-2.41-1.68.9-3.32,1.89-4.95,2.88-5.96,3.62-11.92,7.26-17.86,10.91-3.43,2.11-6.84,4.26-10.26,6.39-.28.18-.55.37-.82.57-1.93,1.46-1.94,3.43.14,4.61,3.72,2.11,7.52,4.06,11.28,6.11,5.9,3.22,11.79,6.48,17.7,9.7,2.01,1.09,4.02,2.17,6.08,3.15,2.03.97,3.75-.13,3.76-2.34.02-4.52,0-9.04,0-13.57Z"/>
  <path class="cls-2" d="m628.72,961.75c0,.54,0,.99,0,1.44,0,13.48.01,26.97-.01,40.45,0,1.36-.1,2.75-.36,4.08-1.22,6.19-7.71,9.88-14.08,8.26-4.45-1.13-7.09-3.93-8.47-8.11-.23-.69-.32-1.46-.32-2.2-.01-14.19,0-28.38-.02-42.57,0-1.1.27-1.53,1.47-1.52,6.57.05,13.15.02,19.72.04.66,0,1.31.09,2.08.14Z"/>
</svg>